<?xml version="1.0" encoding="UTF-8"?>
<svg version="1.1" xmlns="http://www.w3.org/2000/svg" width="512" height="512" fill="#E8EFCF">
<path d="M0 0 C1.01823853 0.00215515 2.03647705 0.0043103 3.08557129 0.00653076 C17.7097884 0.05623391 32.00304638 0.37042012 46.375 3.3125 C47.37160645 3.50585938 48.36821289 3.69921875 49.39501953 3.8984375 C90.47636982 12.01574654 127.58967585 29.3790406 160.375 55.3125 C161.1808252 55.94260986 161.1808252 55.94260986 162.00292969 56.58544922 C176.83942794 68.28004586 191.09652774 82.14184907 202.375 97.3125 C203.24724752 98.45584233 204.11965461 99.59906293 204.9921875 100.7421875 C235.39027257 140.97744541 256.31047237 191.14979804 256.578125 242.10546875 C256.58518463 243.00591919 256.59224426 243.90636963 256.59951782 244.83410645 C256.82854322 282.61882296 256.82854322 282.61882296 253.375 299.3125 C253.17632324 300.29025391 252.97764648 301.26800781 252.77294922 302.27539062 C246.74153348 331.09968457 236.98957766 359.22291397 221.375 384.3125 C220.97780762 384.95864258 220.58061523 385.60478516 220.17138672 386.27050781 C218.90384409 388.3178891 217.61304568 390.34844788 216.3125 392.375 C215.92513672 392.9949585 215.53777344 393.61491699 215.13867188 394.25366211 C211.65651307 399.53846095 207.50104745 403.27048418 201.375 405.3125 C194.32805655 406.00694839 188.09626591 405.82205675 182.375 401.3125 C177.2001134 395.69695711 174.87252609 390.85633306 174.97265625 383.1796875 C176.04791896 375.51713575 180.9807473 368.89614856 185.0625 362.5 C205.20110736 330.20878474 214.8387738 292.79145424 214.75 254.9375 C214.74945618 254.06120941 214.74891235 253.18491882 214.74835205 252.28207397 C214.58496205 194.80866236 190.11721559 142.81083794 150.3125 102 C145.27494126 97.08295701 139.92080702 92.64205417 134.375 88.3125 C133.45074219 87.58289063 132.52648437 86.85328125 131.57421875 86.1015625 C123.53751384 79.90275086 115.10361738 74.4792922 106.375 69.3125 C105.77880859 68.95800781 105.18261719 68.60351562 104.56835938 68.23828125 C57.28792306 40.53863169 -1.34581173 35.23094173 -53.93920898 48.22900391 C-84.97771534 56.41678187 -114.42834779 71.11607681 -138.625 92.3125 C-139.41519531 92.993125 -140.20539063 93.67375 -141.01953125 94.375 C-182.04438084 130.42914891 -208.30851229 179.65855378 -213.625 234.3125 C-213.77303412 237.18274299 -213.81124401 240.04814264 -213.828125 242.921875 C-213.83513931 243.72237778 -213.84215363 244.52288055 -213.84938049 245.34764099 C-213.8668033 247.91931842 -213.87323347 250.4907657 -213.875 253.0625 C-213.87567474 253.94032135 -213.87634949 254.8181427 -213.87704468 255.7225647 C-213.86142298 268.49250145 -213.47583865 280.81609215 -210.625 293.3125 C-210.45339355 294.10994629 -210.28178711 294.90739258 -210.10498047 295.72900391 C-204.89672765 319.64787005 -195.91803174 342.14272325 -183.625 363.3125 C-181.13060066 369.75636496 -182.79030139 377.22586692 -184.27734375 383.73217773 C-184.54069016 384.93120979 -184.54069016 384.93120979 -184.80935669 386.15446472 C-185.38585702 388.77015707 -185.97411126 391.38305249 -186.5625 393.99609375 C-186.96682838 395.82055536 -187.37038112 397.64518902 -187.77319336 399.46998596 C-188.83115487 404.25351755 -189.89898435 409.0347912 -190.96911621 413.81561279 C-192.27212108 419.64518334 -193.56371518 425.47729043 -194.85676575 431.30907536 C-195.86174676 435.84078758 -196.86851503 440.3720783 -197.88061523 444.90220642 C-198.0654245 445.73092255 -198.25023376 446.55963867 -198.44064331 447.41346741 C-198.78713935 448.96687594 -199.13444919 450.52010325 -199.48269653 452.07312012 C-200.28327403 455.16338358 -200.28327403 455.16338358 -200.625 458.3125 C-199.59262711 458.07446655 -198.56025421 457.83643311 -197.49659729 457.59118652 C-187.74492497 455.34409988 -177.99092809 453.10736549 -168.23458958 450.88062286 C-163.21939977 449.73563233 -158.20508537 448.58707014 -153.19262695 447.43017578 C-148.35107711 446.31286887 -143.50741961 445.20516637 -138.66218376 444.10395813 C-136.81834376 443.68315131 -134.97527527 443.25894843 -133.13302803 442.83122253 C-130.54323099 442.23055724 -127.95089933 441.6422659 -125.35766602 441.05664062 C-124.22800919 440.79014458 -124.22800919 440.79014458 -123.07553101 440.51826477 C-116.49087704 439.05450119 -109.33175825 438.04112318 -103 440.875 C-102.1646875 441.23980469 -101.329375 441.60460937 -100.46875 441.98046875 C-97.77230396 443.24350185 -95.080884 444.51682025 -92.390625 445.79296875 C-40.88636884 470.16171805 17.31073457 473.55204676 71.375 455.3125 C84.76464555 450.45930304 97.86648584 444.23127102 110.20703125 437.125 C115.75437691 433.95117955 121.14812424 433.50738081 127.42578125 434.703125 C133.34536281 436.49624097 136.89438625 440.30848719 140.375 445.3125 C142.39772279 451.38066836 142.18250239 458.58717943 140.375 464.6875 C135.21617327 471.45846008 128.43213257 475.80672137 120.9375 479.625 C120.03427002 480.08938477 119.13104004 480.55376953 118.20043945 481.03222656 C93.44037541 493.48295339 66.81719396 502.28163902 39.375 506.3125 C38.17037109 506.48982666 36.96574219 506.66715332 35.72460938 506.84985352 C24.0673269 508.44882494 12.50313934 508.67090972 0.75 508.625 C-0.21955627 508.62317719 -1.18911255 508.62135437 -2.18804932 508.61947632 C-16.51979259 508.57412737 -30.53395512 508.15545422 -44.625 505.3125 C-45.52686035 505.13557617 -46.4287207 504.95865234 -47.35791016 504.77636719 C-53.83099895 503.47748713 -60.23388488 501.96592874 -66.625 500.3125 C-67.44500488 500.10286621 -68.26500977 499.89323242 -69.10986328 499.67724609 C-83.34938161 495.9532408 -96.66692521 490.29989602 -110.1015625 484.34057617 C-113.96786428 482.76540233 -116.58024557 482.06121058 -120.68998718 483.01399231 C-121.89036369 483.28526192 -121.89036369 483.28526192 -123.11499023 483.56201172 C-123.98414063 483.76818115 -124.85329102 483.97435059 -125.7487793 484.18676758 C-126.67124954 484.39798752 -127.59371979 484.60920746 -128.54414368 484.826828 C-131.59788879 485.52830021 -134.64847573 486.24262581 -137.69921875 486.95703125 C-139.82409939 487.44771857 -141.94916847 487.93759054 -144.07441711 488.42668152 C-149.67716014 489.71832133 -155.27732576 491.02081273 -160.87701416 492.32562256 C-166.55131296 493.6459326 -172.2278674 494.95646453 -177.90429688 496.26757812 C-184.29398391 497.74398658 -190.68341455 499.22144674 -197.07121277 500.70600891 C-198.53696747 501.04659332 -198.53696747 501.04659332 -200.03233337 501.39405823 C-201.840768 501.81445227 -203.64912018 502.23520123 -205.45736694 502.65640259 C-207.84585432 503.21163637 -210.23511611 503.76331016 -212.625 504.3125 C-213.44505335 504.50155096 -214.2651067 504.69060192 -215.11001015 504.8853817 C-216.30324426 505.15640677 -216.30324426 505.15640677 -217.52058411 505.4329071 C-218.22780515 505.59421962 -218.93502619 505.75553213 -219.66367817 505.9217329 C-226.62997028 507.30967327 -234.68703347 507.55973424 -240.90234375 503.74609375 C-245.25628039 500.12274965 -248.18128873 496.26949951 -249.03833008 490.55796814 C-249.20284538 478.78047609 -246.43766142 467.73270162 -243.8125 456.31640625 C-243.31774452 454.11149857 -242.82452559 451.9062456 -242.33276367 449.70066833 C-241.04328002 443.93189877 -239.73742357 438.16697681 -238.42663574 432.40301514 C-236.32544863 423.15564808 -234.24454971 413.90374915 -232.17300415 404.64970207 C-231.44880431 401.42917666 -230.71456745 398.21105938 -229.97924805 394.99305725 C-229.53400206 393.01701392 -229.08907909 391.04089777 -228.64453125 389.06469727 C-228.438815 388.17678497 -228.23309875 387.28887268 -228.02114868 386.37405396 C-226.58024409 379.90707254 -225.33370993 373.83072285 -228.64453125 367.7578125 C-229.08458496 366.9129126 -229.52463867 366.0680127 -229.97802734 365.19750977 C-230.45965332 364.28670654 -230.9412793 363.37590332 -231.4375 362.4375 C-242.38906224 340.5971506 -249.9059911 316.45014467 -253.625 292.3125 C-253.80611328 291.1663623 -253.98722656 290.02022461 -254.17382812 288.83935547 C-255.80173307 277.4165029 -256.02392978 266.08867649 -256 254.5625 C-255.99945618 253.57449402 -255.99891235 252.58648804 -255.99835205 251.56854248 C-255.82345426 182.24325621 -226.74705332 119.58573091 -178.10302734 70.78564453 C-143.10982683 36.44067322 -97.16432128 13.85259217 -49.375 4.0625 C-48.64482666 3.91143799 -47.91465332 3.76037598 -47.16235352 3.60473633 C-31.4681851 0.57261683 -15.94516136 -0.0607107 0 0 Z " fill="#E8EFCF" transform="translate(255.625,1.6875)"/>
<path d="M0 0 C1.03318359 -0.03738281 2.06636719 -0.07476562 3.13085938 -0.11328125 C11.68831186 -0.21208442 11.68831186 -0.21208442 15.16015625 2.3671875 C18.21889714 6.00742009 19.99912379 9.5086331 21.8125 13.875 C22.17722412 14.72433105 22.54194824 15.57366211 22.91772461 16.44873047 C23.7300496 18.35037437 24.53453867 20.25537842 25.33251953 22.16308594 C26.56179229 25.0770161 27.82156289 27.97592544 29.09387207 30.87127686 C30.21771119 33.43793982 31.32406676 36.01191531 32.42694092 38.58764648 C32.97009659 39.84965268 33.51869911 41.10933029 34.07305908 42.36645508 C37.55414228 50.28955786 40.89360628 58.0409873 37.89941406 66.63769531 C35.09188301 72.84108912 29.91344311 77.59178171 25.05786133 82.23925781 C22.14119737 85.16219596 20.81210226 86.71267965 20.03125 90.86328125 C20.8218565 95.09396724 22.5275869 98.01102308 25 101.4375 C25.45294434 102.085979 25.90588867 102.73445801 26.37255859 103.40258789 C27.78978806 105.40955826 29.23422035 107.39402078 30.6875 109.375 C31.11498535 109.96764648 31.5424707 110.56029297 31.98291016 111.17089844 C42.88255871 126.17010365 55.96462686 139.47648338 71.6875 149.375 C72.3592627 149.80006836 73.03102539 150.22513672 73.72314453 150.66308594 C90.57383767 161.977334 90.57383767 161.977334 109.6875 165.375 C112.49985587 163.34462116 112.49985587 163.34462116 114.875 160.375 C115.33060303 159.85188232 115.78620605 159.32876465 116.25561523 158.78979492 C120.70193249 153.58797319 124.78812254 148.08297958 128.8034668 142.54492188 C129.28211182 141.88685547 129.76075684 141.22878906 130.25390625 140.55078125 C130.67615479 139.96208252 131.09840332 139.37338379 131.53344727 138.7668457 C133.63864948 136.22786584 135.13429839 136.32494756 138.48828125 135.94921875 C145.2834993 136.04003854 150.89023741 139.24506366 156.875 142.1875 C158.10673231 142.77909996 159.33908142 143.36941732 160.57202148 143.95849609 C163.68757417 145.45314457 166.79176725 146.96985837 169.8927002 148.49456787 C172.69159556 149.86755521 175.49915752 151.2226639 178.3046875 152.58203125 C180.28748773 153.55258731 182.2693177 154.52512901 184.25 155.5 C185.16483154 155.94835205 186.07966309 156.3967041 187.0222168 156.85864258 C187.86179932 157.27911865 188.70138184 157.69959473 189.56640625 158.1328125 C190.2941626 158.4952002 191.02191895 158.85758789 191.77172852 159.23095703 C193.79188906 160.43733811 195.2093268 161.54315869 196.6875 163.375 C196.99253492 165.95583465 197.11475331 168.23647175 197.0625 170.8125 C197.05234863 171.52680176 197.04219727 172.24110352 197.03173828 172.97705078 C196.69452235 184.66458905 193.75353004 195.22685787 185.37890625 203.71484375 C180.31169253 208.11947975 174.87624051 211.61395628 169 214.8125 C168.39486572 215.14266113 167.78973145 215.47282227 167.16625977 215.81298828 C150.83539515 224.2647912 129.66721606 221.71769403 112.6875 216.375 C111.79095703 216.10123535 110.89441406 215.8274707 109.97070312 215.54541016 C65.72445906 201.91242414 28.5608503 177.95114006 -0.3125 141.375 C-1.14265625 140.35019531 -1.9728125 139.32539063 -2.828125 138.26953125 C-25.71007015 109.87677332 -43.68920543 82.02667683 -41.3125 44.375 C-39.68829324 31.59790679 -33.89662201 21.18322925 -25.8125 11.4375 C-25.13658813 10.62128174 -25.13658813 10.62128174 -24.44702148 9.78857422 C-17.07438795 1.25744099 -10.65891143 0.14466135 0 0 Z " fill="#E8EFCF" transform="translate(180.3125,143.625)"/>
</svg>
